<svg
					viewBox="0 0 228 42"
					xmlns="http://www.w3.org/2000/svg"
					data-logo="logo"
				>
					<g transform="translate(0, 1) rotate(0)" id="logogram">
						<path
							fill="#82C8E5"
							d="M24.6625 0C29.5499 0.000157557 33.512 3.87456 33.5121 8.65224C33.5121 8.91866 33.4997 9.18398 33.4824 9.44828H40.9366C48.1871 9.44828 51.0342 18.6407 45.0014 22.5723L37.1131 27.7122C35.415 28.8193 35.8805 31.3743 37.8654 31.84C38.5143 31.9921 39.1997 31.8658 39.7475 31.4934L44.3242 28.1927C44.4979 28.0675 44.7074 28 44.9225 28H57.4922C57.9872 28 58.1886 28.6281 57.7838 28.909L44.4783 38.1397C41.99 39.8319 38.8796 40.4048 35.9321 39.7133C26.9186 37.5986 24.8061 26.0015 32.5185 20.9749L37.7818 17.5457H29.7048H24.5358C23.0515 17.5457 21.6504 17.1926 20.4171 16.5691C21.7314 17.4535 24.9805 18.4377 27.7216 18.6251C27.9658 18.6251 28.3625 18.8385 27.8901 19.3183L11.2952 35.7067C11.105 35.8945 10.847 36 10.578 36H0.507884C0.056246 36 -0.169872 35.4613 0.149574 35.1463L19.5219 16.0472C17.1349 14.4709 15.5652 11.8013 15.5649 8.77349C15.5649 3.92875 19.5825 0 24.5385 0H24.6625ZM24.8419 6.74915C23.6982 6.74915 22.771 7.35337 22.771 8.09871C22.7715 8.71319 23.4024 9.23009 24.2648 9.39292C24.3487 9.42847 24.4413 9.44828 24.5385 9.44828H25.1533C25.1544 9.44225 25.1535 9.43586 25.1546 9.42983C26.1495 9.33152 26.9122 8.77441 26.9127 8.09871C26.9127 7.35337 25.9855 6.74915 24.8419 6.74915Z"
							clip-rule="evenodd"
							fill-rule="evenodd"
						></path>
					</g>
					<g transform="translate(64, 7)" id="logotype">
						<path
							d="M6.75 8.10L6.75 7.72Q6.72 7.45 6.63 7.23Q6.55 7.00 6.44 6.73L6.44 6.73Q6.27 6.32 6.14 5.84Q6 5.36 6 4.71L6 4.71Q6.07 4.37 6.17 4.22Q6.27 4.07 6.38 3.96L6.38 3.96L6.51 3.35L7.03 3.35Q7.30 3.38 7.59 3.38Q7.88 3.38 8.15 3.38L8.15 3.38Q9.45 3.38 10.82 3.28Q12.19 3.18 13.62 3.04L13.62 3.04Q15.19 2.83 17.01 2.73L17.01 2.73Q17.18 2.36 17.23 2.25Q17.28 2.15 17.35 2.01L17.35 2.01L17.72 1.81Q18.51 1.78 18.82 2.00Q19.13 2.22 19.30 2.42L19.30 2.42Q20.18 2.36 21.11 2.24Q22.03 2.12 23.02 1.98L23.02 1.98Q24.39 1.81 25.79 1.64Q27.19 1.47 28.52 1.47L28.52 1.47Q29.11 1.47 29.62 1.50Q30.13 1.54 30.61 1.60L30.61 1.60L31.02 1.91Q31.16 2.15 31.36 2.36Q31.57 2.56 31.84 2.77L31.84 2.77Q32.35 3.18 32.85 3.79Q33.34 4.41 33.21 5.60L33.21 5.60L33.04 5.95Q32.90 6.08 32.69 6.22L32.69 6.22L32.35 6.66L31.98 6.66Q31.63 6.66 31.46 6.71Q31.29 6.77 31.05 6.87L31.05 6.87Q30.92 6.94 30.75 6.99Q30.58 7.04 30.37 7.11L30.37 7.11Q29.99 7.07 29.79 7.07Q29.58 7.07 29.31 7.07L29.31 7.07Q28.29 7.07 27.09 7.21Q25.89 7.35 24.76 7.52L24.76 7.52Q23.94 7.62 23.19 7.71Q22.44 7.79 21.83 7.86L21.83 7.86Q21.48 8.75 21.21 9.43Q20.94 10.12 20.63 10.80L20.63 10.80Q20.32 11.48 20.05 12.18Q19.77 12.88 19.54 13.74L19.54 13.74Q19.13 14.35 18.85 14.92Q18.58 15.48 18.41 16.20L18.41 16.20Q17.89 16.78 17.67 17.46Q17.45 18.15 17.28 18.63L17.28 18.63L17.14 19.14Q16.90 19.38 16.85 19.51Q16.80 19.65 16.66 19.82L16.66 19.82Q16.56 20.27 16.39 20.68L16.39 20.68Q16.32 20.85 16.25 21.04Q16.19 21.22 16.22 21.33L16.22 21.33Q16.15 21.70 16.01 21.91L16.01 21.91Q16.01 22.11 15.98 22.32Q15.95 22.52 15.91 22.73L15.91 22.73Q15.84 22.97 15.81 23.15Q15.78 23.34 15.84 23.51L15.84 23.51Q15.95 23.65 16.05 23.79Q16.15 23.92 16.22 24.13L16.22 24.13Q16.29 24.20 16.39 24.23Q16.49 24.27 16.56 24.33L16.56 24.33Q16.83 24.57 17.07 24.61L17.07 24.61L17.42 25.02Q17.62 26.25 17.04 26.93L17.04 26.93Q16.42 27.72 14.99 27.72L14.99 27.72L14.51 27.68Q14.27 27.44 14.24 27.38L14.24 27.38Q13.93 27.24 13.72 27.15Q13.52 27.07 13.35 26.83L13.35 26.83Q13.28 26.76 13.18 26.74Q13.08 26.73 13.01 26.66L13.01 26.66Q12.67 26.56 12.46 26.42L12.46 26.42L12.08 26.21Q12.12 25.87 12.12 25.74L12.12 25.74Q11.84 25.36 11.69 24.92Q11.54 24.47 11.43 23.99L11.43 23.99Q11.33 23.62 11.25 23.31Q11.16 23.00 10.99 22.76L10.99 22.76Q10.92 20.37 11.43 18.75Q11.95 17.12 12.56 15.58L12.56 15.58Q12.90 14.76 13.21 13.91Q13.52 13.05 13.76 12.17L13.76 12.17L14.13 11.79Q14.37 11.58 14.44 11.55L14.44 11.55Q14.44 11.11 14.61 10.68Q14.78 10.25 14.99 9.81L14.99 9.81Q15.13 9.53 15.25 9.26Q15.37 8.99 15.40 8.78L15.40 8.78Q15.16 8.78 14.97 8.80Q14.78 8.82 14.58 8.85L14.58 8.85Q14.13 8.95 13.72 8.95L13.72 8.95Q13.42 8.95 13.28 8.92L13.28 8.92Q13.01 9.06 12.77 9.07Q12.53 9.09 12.29 9.09L12.29 9.09L11.88 9.09L11.47 9.09Q11.06 9.09 10.82 9.19L10.82 9.19Q10.34 9.19 10.20 9.19Q10.07 9.19 9.90 9.19L9.90 9.19L9.49 9.19L9.08 9.19Q8.80 9.19 8.46 9.14Q8.12 9.09 7.74 8.88L7.74 8.88L7.50 8.61Q7.30 8.24 7.13 8.20L7.13 8.20L6.75 8.10ZM32.76 23.45L32.76 23.45Q32.39 24.81 32.10 25.51Q31.81 26.21 31.22 26.97L31.22 26.97Q30.78 26.90 30.61 27.07Q30.44 27.24 30.23 27.38L30.23 27.38Q29.93 27.44 29.79 27.38Q29.65 27.31 29.55 27.22Q29.45 27.14 29.29 27.05Q29.14 26.97 28.83 26.97L28.83 26.97Q28.76 26.69 28.68 26.45Q28.59 26.21 28.22 26.28L28.22 26.28Q28.29 26.01 28.25 25.82Q28.22 25.63 28.17 25.48Q28.11 25.33 28.08 25.17Q28.05 25.02 28.11 24.78L28.11 24.78Q27.94 24.78 27.84 24.54Q27.74 24.30 27.60 24.06L27.60 24.06Q27.70 23.45 27.81 22.90Q27.91 22.35 28.06 21.87Q28.22 21.39 28.32 20.92Q28.42 20.44 28.22 19.92L28.22 19.92Q28.35 20.03 28.42 19.87Q28.49 19.72 28.52 19.46Q28.56 19.21 28.56 18.95Q28.56 18.69 28.52 18.52L28.52 18.52Q28.87 17.63 29.09 16.69Q29.31 15.75 29.50 14.83Q29.69 13.91 29.89 13.02Q30.10 12.13 30.44 11.38L30.44 11.38Q30.81 11.31 31.28 11.47Q31.74 11.62 31.84 11.86L31.84 11.86Q32.73 11.17 33.41 10.20Q34.10 9.23 34.81 8.30Q35.53 7.38 36.40 6.66Q37.27 5.95 38.61 5.81L38.61 5.81Q39.29 6.32 40.13 6.85Q40.97 7.38 41.51 8.24L41.51 8.24Q41.79 8.37 41.97 8.53Q42.16 8.68 42.44 8.85L42.44 8.85L42.44 9.26Q42.85 9.64 43.10 10.13Q43.36 10.63 43.56 11.19Q43.77 11.76 43.97 12.32Q44.18 12.88 44.45 13.40L44.45 13.40Q44.38 13.57 44.38 13.69Q44.38 13.81 44.44 13.94Q44.49 14.08 44.52 14.22Q44.55 14.35 44.52 14.59L44.52 14.59Q44.42 16.10 43.55 17.02Q42.67 17.94 41.44 18.54Q40.21 19.14 38.81 19.55Q37.41 19.96 36.28 20.44L36.28 20.44Q36.28 20.57 36.40 20.57Q36.52 20.57 36.49 20.75L36.49 20.75Q37.31 21.26 37.79 21.57Q38.27 21.87 38.69 22.08Q39.12 22.28 39.62 22.44Q40.11 22.59 41 22.80L41 22.80Q41.89 23.00 42.38 23.12Q42.88 23.24 43.29 23.33Q43.70 23.41 44.13 23.46Q44.55 23.51 45.34 23.58L45.34 23.58Q45.65 23.89 45.87 24.32Q46.09 24.74 46.16 25.17Q46.23 25.60 46.20 25.99Q46.16 26.38 45.96 26.62L45.96 26.62Q45.99 26.73 46.11 26.71Q46.23 26.69 46.37 26.73L46.37 26.73Q46.16 26.86 46.02 27.07Q45.89 27.27 45.75 27.48Q45.61 27.68 45.44 27.84Q45.27 27.99 44.96 28.03L44.96 28.03Q43.91 28.44 42.30 28.08Q40.69 27.72 38.23 26.76L38.23 26.76Q37.00 26.28 36.23 25.92Q35.46 25.56 34.90 25.21Q34.33 24.85 33.87 24.44Q33.41 24.03 32.76 23.45ZM37.65 11.72L37.65 11.72Q37.27 12.27 36.81 12.71Q36.35 13.16 35.92 13.62Q35.50 14.08 35.16 14.64Q34.81 15.21 34.68 15.96L34.68 15.96Q35.87 15.82 37.17 15.29Q38.47 14.76 39.63 14.29L39.63 14.29Q39.50 13.23 38.90 12.58Q38.30 11.93 37.65 11.72ZM53.44 24.61L53.44 24.61Q53.61 25.63 53.32 26.21Q53.03 26.79 52.50 27.09Q51.97 27.38 51.29 27.41Q50.60 27.44 49.99 27.34L49.99 27.34Q49.65 26.86 49.37 26.15Q49.10 25.43 48.86 24.66Q48.62 23.89 48.43 23.14Q48.25 22.39 48.11 21.80L48.11 21.80Q48.28 21.39 48.33 20.86Q48.38 20.33 48.40 19.79Q48.42 19.24 48.43 18.68Q48.45 18.11 48.52 17.60L48.52 17.60Q48.76 16.17 49.22 14.87Q49.68 13.57 49.96 12.17L49.96 12.17Q50.02 11.86 49.90 11.58Q49.78 11.31 49.85 11.07L49.85 11.07Q49.89 10.94 50.06 10.88Q50.23 10.83 50.26 10.66L50.26 10.66Q50.37 10.29 50.31 10.05Q50.26 9.81 50.43 9.47L50.43 9.47Q50.60 9.19 50.86 8.66Q51.12 8.13 51.05 7.55L51.05 7.55Q51.36 7.35 51.63 7.07Q51.90 6.80 52.19 6.58Q52.48 6.36 52.84 6.18Q53.20 6.01 53.71 6.01L53.71 6.01Q53.99 6.36 54.07 6.77Q54.16 7.18 54.24 7.59Q54.33 8.00 54.50 8.35Q54.67 8.71 55.08 8.92L55.08 8.92Q55.08 9.19 55.08 9.60Q55.08 10.01 55.12 10.41Q55.15 10.80 55.27 11.12Q55.39 11.45 55.66 11.55L55.66 11.55Q55.05 13.19 54.52 14.80Q53.99 16.40 53.65 18.03Q53.30 19.65 53.22 21.29Q53.13 22.93 53.44 24.61ZM70.29 5.81L70.29 5.81Q71.73 5.98 72.86 6.39Q73.98 6.80 74.77 7.48L74.77 7.48Q75.32 8.34 75.81 9.33Q76.31 10.32 76.56 11.40Q76.82 12.47 76.80 13.60Q76.79 14.73 76.31 15.89L76.31 15.89Q75.32 17.12 73.90 17.89Q72.48 18.66 70.84 19.14Q69.20 19.62 67.44 19.96Q65.68 20.30 64.00 20.64L64.00 20.64Q64.04 21.43 64.02 22.30Q64.00 23.17 63.85 24.04Q63.70 24.92 63.39 25.74Q63.08 26.56 62.57 27.24L62.57 27.24Q61.99 27.24 61.37 27.39Q60.76 27.55 60.28 27.65L60.28 27.65Q60.04 27.51 59.85 27.39Q59.66 27.27 59.32 27.24L59.32 27.24Q59.39 26.90 59.15 26.54Q58.91 26.18 58.67 25.80Q58.43 25.43 58.35 25.09Q58.26 24.74 58.67 24.44L58.67 24.44Q58.43 24.20 58.43 23.82L58.43 23.82Q58.67 23.41 58.86 22.69Q59.05 21.98 59.17 21.27Q59.29 20.57 59.22 19.99Q59.15 19.41 58.53 19.14L58.53 19.14Q58.57 19.07 58.67 19.07Q58.77 19.07 58.88 19.04L58.88 19.04Q58.60 18.83 58.55 18.46Q58.50 18.08 58.29 17.81L58.29 17.81Q58.36 17.63 58.40 17.50Q58.43 17.36 58.64 17.40L58.64 17.40Q58.53 16.78 58.65 16.23Q58.77 15.69 59.01 15.19Q59.25 14.70 59.59 14.22Q59.94 13.74 60.24 13.26L60.24 13.26Q60.48 13.23 60.53 13.33Q60.58 13.43 60.76 13.29L60.76 13.29Q61.20 12.95 61.37 12.58Q61.54 12.20 61.54 11.72L61.54 11.72Q61.78 11.00 62.12 10.27Q62.46 9.53 62.88 8.92Q63.29 8.30 63.78 7.83Q64.28 7.35 64.82 7.11L64.82 7.11Q65.23 6.77 65.85 6.48Q66.46 6.18 67.18 6.03Q67.90 5.88 68.63 5.86Q69.37 5.84 69.98 6.01L69.98 6.01Q70.16 6.08 70.17 5.95Q70.19 5.81 70.29 5.81ZM68.89 13.98L68.89 13.98Q69.75 13.60 70.72 13.38Q71.69 13.16 72.34 12.54L72.34 12.54Q71.93 12.17 71.15 11.88Q70.36 11.58 69.44 11.52Q68.51 11.45 67.57 11.67Q66.63 11.89 65.95 12.51L65.95 12.51Q65.75 13.12 65.61 13.48Q65.47 13.84 65.23 14.35L65.23 14.35Q65.30 14.52 65.46 14.61Q65.61 14.70 65.68 14.87L65.68 14.87Q66.46 14.46 67.27 14.40Q68.07 14.35 68.89 13.98ZM77.26 20.06L77.26 20.06Q76.24 19.48 75.69 18.42Q75.15 17.36 75.08 16.40L75.08 16.40Q75.18 15.58 75.50 15.12Q75.83 14.66 76.27 14.37Q76.72 14.08 77.20 13.93Q77.67 13.77 78.12 13.67L78.12 13.67L78.63 13.84Q78.80 14.01 78.99 14.15Q79.18 14.29 79.35 14.42L79.35 14.42Q79.69 14.29 79.78 14.01Q79.86 13.74 79.96 13.46L79.96 13.46Q80.07 13.09 80.20 12.71Q80.34 12.34 80.55 11.96L80.55 11.96Q80.51 11.65 80.58 11.41Q80.65 11.17 80.72 11.00L80.72 11.00Q80.51 10.83 80.43 10.82Q80.34 10.80 80.14 10.73L80.14 10.73Q80.03 10.73 79.93 10.71Q79.83 10.70 79.69 10.66L79.69 10.66Q79.18 10.29 79.02 10.03Q78.87 9.77 78.70 9.50L78.70 9.50Q78.53 9.23 78.39 9.02Q78.26 8.82 78.08 8.65L78.08 8.65L77.67 8.37L77.88 7.96Q77.95 7.89 77.95 7.77Q77.95 7.65 77.81 7.42L77.81 7.42Q77.71 6.97 77.78 6.77L77.78 6.77L77.85 6.36Q78.19 5.91 78.22 5.84L78.22 5.84L78.56 5.50Q79.35 5.30 80.17 5.04Q80.99 4.78 81.78 4.51L81.78 4.51Q82.56 4.24 83.38 3.96Q84.20 3.69 85.02 3.48L85.02 3.48Q85.30 3.25 85.62 3.19Q85.95 3.14 86.22 3.11L86.22 3.11Q86.46 3.11 86.66 3.07Q86.87 3.04 86.97 2.90L86.97 2.90Q87.55 2.70 88.10 2.56L88.10 2.56Q89.13 2.29 90.80 1.91Q92.47 1.54 94.56 1.37L94.56 1.37L95.28 1.33Q95.48 1.37 95.69 1.35Q95.89 1.33 96.10 1.33L96.10 1.33Q97.88 1.33 98.46 2.42L98.46 2.42Q98.80 2.60 99.07 2.85Q99.34 3.11 99.58 3.35L99.58 3.35Q99.75 3.52 99.89 3.64Q100.03 3.76 100.13 3.83L100.13 3.83L100.40 4.10Q100.78 4.92 100.54 5.71L100.54 5.71Q100.34 6.12 100.10 6.18Q99.86 6.25 99.62 6.32L99.62 6.32L99.17 6.56Q98.73 6.53 98.51 6.53Q98.29 6.53 98.01 6.53L98.01 6.53Q96.99 6.53 95.64 6.65Q94.29 6.77 92.88 6.99Q91.48 7.21 90.15 7.53Q88.82 7.86 87.83 8.24L87.83 8.24Q87.55 8.44 87.11 8.61L87.11 8.61Q87.01 8.65 86.80 8.78L86.80 8.78Q86.83 9.06 86.80 9.31Q86.77 9.57 86.70 9.81L86.70 9.81Q86.66 9.98 86.65 10.17Q86.63 10.35 86.60 10.56L86.60 10.56Q85.88 11.41 85.91 12.58L85.91 12.58L85.74 12.92Q85.60 13.05 85.52 13.31Q85.43 13.57 85.50 13.84L85.50 13.84L85.64 14.25Q86.32 14.18 86.99 14.10Q87.66 14.01 88.41 13.91L88.41 13.91Q89.36 13.74 90.34 13.62Q91.31 13.50 92.37 13.50L92.37 13.50L93.71 13.50L93.40 13.81L93.77 13.84L93.57 14.39Q93.81 14.49 93.93 14.54Q94.05 14.59 94.15 14.66L94.15 14.66L94.39 15.00Q94.56 15.11 94.70 15.33Q94.83 15.55 94.87 15.93L94.87 15.93L94.76 16.27L93.16 18.32L92.95 18.59L92.61 18.49Q91.96 18.46 91.38 18.63L91.38 18.63Q91.11 18.69 90.80 18.78Q90.49 18.87 90.18 18.87L90.18 18.87Q89.36 19.00 88.82 19.09Q88.27 19.17 87.72 19.24L87.72 19.24Q86.97 19.38 86.27 19.50Q85.57 19.62 84.96 19.86L84.96 19.86Q84.58 19.89 84.51 19.87Q84.44 19.86 84.37 19.86L84.37 19.86Q84.03 19.86 83.69 19.96Q83.35 20.06 83.04 20.16L83.04 20.16Q82.84 20.33 82.77 20.52Q82.70 20.71 82.63 20.92L82.63 20.92Q82.56 21.16 82.44 21.38Q82.32 21.60 82.15 21.84L82.15 21.84L82.19 22.45Q81.88 22.52 81.88 22.54Q81.88 22.56 81.84 22.56L81.84 22.56Q81.84 22.83 81.76 23.07Q81.67 23.31 81.61 23.51L81.61 23.51Q81.54 23.65 81.50 23.75Q81.47 23.86 81.47 23.96L81.47 23.96Q81.81 24.57 81.64 25.36L81.64 25.36Q81.50 26.01 81.13 26.50Q80.75 27 80.24 27.27L80.24 27.27Q79.69 27.34 79.44 27.24Q79.18 27.14 78.91 27.03L78.91 27.03Q78.73 26.97 78.56 26.91Q78.39 26.86 78.22 26.83L78.22 26.83L77.81 26.49Q77.71 26.28 77.57 26.09Q77.44 25.91 77.30 25.70L77.30 25.70Q77.13 25.46 76.96 25.22Q76.79 24.98 76.65 24.68L76.65 24.68Q76.41 23.48 76.56 22.68Q76.72 21.87 76.99 21.09L76.99 21.09Q77.06 20.81 77.13 20.57Q77.20 20.33 77.26 20.06ZM103.14 24.61L103.14 24.61Q103.31 25.63 103.02 26.21Q102.73 26.79 102.20 27.09Q101.67 27.38 100.99 27.41Q100.30 27.44 99.69 27.34L99.69 27.34Q99.34 26.86 99.07 26.15Q98.80 25.43 98.56 24.66Q98.32 23.89 98.13 23.14Q97.94 22.39 97.81 21.80L97.81 21.80Q97.98 21.39 98.03 20.86Q98.08 20.33 98.10 19.79Q98.11 19.24 98.13 18.68Q98.15 18.11 98.22 17.60L98.22 17.60Q98.46 16.17 98.92 14.87Q99.38 13.57 99.65 12.17L99.65 12.17Q99.72 11.86 99.60 11.58Q99.48 11.31 99.55 11.07L99.55 11.07Q99.58 10.94 99.75 10.88Q99.93 10.83 99.96 10.66L99.96 10.66Q100.06 10.29 100.01 10.05Q99.96 9.81 100.13 9.47L100.13 9.47Q100.30 9.19 100.56 8.66Q100.81 8.13 100.75 7.55L100.75 7.55Q101.05 7.35 101.33 7.07Q101.60 6.80 101.89 6.58Q102.18 6.36 102.54 6.18Q102.90 6.01 103.41 6.01L103.41 6.01Q103.69 6.36 103.77 6.77Q103.86 7.18 103.94 7.59Q104.03 8.00 104.20 8.35Q104.37 8.71 104.78 8.92L104.78 8.92Q104.78 9.19 104.78 9.60Q104.78 10.01 104.81 10.41Q104.85 10.80 104.97 11.12Q105.09 11.45 105.36 11.55L105.36 11.55Q104.75 13.19 104.22 14.80Q103.69 16.40 103.34 18.03Q103.00 19.65 102.92 21.29Q102.83 22.93 103.14 24.61ZM114.11 20.78L114.11 20.78Q113.80 20.85 113.67 21.14Q113.53 21.43 113.41 21.74Q113.29 22.04 113.17 22.30Q113.05 22.56 112.81 22.56L112.81 22.56Q112.78 22.83 112.62 23.04Q112.47 23.24 112.33 23.46Q112.20 23.68 112.13 23.94Q112.06 24.20 112.20 24.54L112.20 24.54Q111.92 24.74 111.85 25.12Q111.79 25.50 111.70 25.84Q111.62 26.18 111.41 26.42Q111.21 26.66 110.66 26.62L110.66 26.62Q110.56 26.76 110.62 26.79Q110.69 26.83 110.73 27.03L110.73 27.03Q110.35 26.97 110.16 27.09Q109.97 27.21 109.70 27.24L109.70 27.24Q109.05 27.03 108.62 26.52Q108.20 26.01 107.87 25.38Q107.55 24.74 107.29 24.09Q107.04 23.45 106.80 22.97L106.80 22.97Q106.90 22.59 106.83 22.23Q106.76 21.87 106.59 21.63L106.59 21.63Q108.27 18.08 110.25 14.05Q112.23 10.01 114.01 6.08L114.01 6.08Q114.79 6.39 115.56 6.78Q116.33 7.18 116.96 7.69Q117.60 8.20 118.04 8.87Q118.49 9.53 118.62 10.35L118.62 10.35Q118.55 10.56 118.47 10.51Q118.38 10.46 118.31 10.56L118.31 10.56Q118.45 10.73 118.47 10.80Q118.49 10.87 118.47 10.94Q118.45 11.00 118.45 11.12Q118.45 11.24 118.55 11.45L118.55 11.45Q118.42 11.41 118.37 11.48Q118.31 11.55 118.14 11.48L118.14 11.48Q118.28 11.86 118.23 12.10Q118.18 12.34 118.08 12.52Q117.97 12.71 117.90 12.94Q117.84 13.16 117.94 13.50L117.94 13.50Q117.84 13.50 117.78 13.55Q117.73 13.60 117.70 13.65Q117.67 13.70 117.61 13.76Q117.56 13.81 117.46 13.77L117.46 13.77Q117.56 14.52 117.53 15.28Q117.49 16.03 117.48 16.80Q117.46 17.57 117.49 18.40Q117.53 19.24 117.73 20.13L117.73 20.13Q118.96 19.41 119.70 18.28Q120.43 17.16 120.90 15.75Q121.36 14.35 121.60 12.75Q121.83 11.14 122.11 9.47L122.11 9.47Q122.42 9.16 122.59 8.71Q122.76 8.27 122.89 7.77Q123.03 7.28 123.17 6.78Q123.30 6.29 123.51 5.88L123.51 5.88Q124.02 5.95 124.38 6.20Q124.74 6.46 125.05 6.75Q125.36 7.04 125.70 7.30Q126.04 7.55 126.55 7.62L126.55 7.62Q126.96 8.20 127.30 8.75Q127.65 9.29 127.75 9.91L127.75 9.91Q127.58 10.18 127.49 10.53Q127.41 10.87 127.30 11.21Q127.20 11.55 127.03 11.84Q126.86 12.13 126.55 12.34L126.55 12.34Q126.45 13.23 126.30 13.96Q126.14 14.70 125.99 15.41Q125.83 16.13 125.73 16.90Q125.63 17.67 125.66 18.59L125.66 18.59Q125.39 19.38 125.08 20.27Q124.77 21.16 124.60 21.87L124.60 21.87Q124.06 22.32 123.75 22.93Q123.44 23.55 123.10 24.16L123.10 24.16Q122.96 24.30 122.93 24.23Q122.89 24.16 122.69 24.13L122.69 24.13Q122.72 24.27 122.69 24.33Q122.66 24.40 122.60 24.45Q122.55 24.50 122.54 24.61Q122.52 24.71 122.59 24.88L122.59 24.88Q122.11 25.09 121.73 25.46Q121.36 25.84 120.93 26.15Q120.50 26.45 119.90 26.56Q119.31 26.66 118.35 26.32L118.35 26.32Q116.95 25.29 115.87 23.96Q114.79 22.63 114.11 20.78ZM143.71 17.77L143.71 17.77Q143.68 17.94 143.64 18.06Q143.61 18.18 143.57 18.28Q143.54 18.39 143.54 18.54Q143.54 18.69 143.54 18.93L143.54 18.93Q142.51 20.75 140.96 21.98Q139.40 23.21 137.54 24.15Q135.68 25.09 133.66 25.85Q131.64 26.62 129.73 27.51L129.73 27.51Q128.91 27.31 128.48 26.83Q128.06 26.35 127.83 25.72Q127.61 25.09 127.53 24.32Q127.44 23.55 127.37 22.73L127.37 22.73Q127.47 22.35 127.66 22.10Q127.85 21.84 127.85 21.36L127.85 21.36Q128.12 20.47 128.40 19.62Q128.67 18.76 128.74 17.87L128.74 17.87Q128.84 17.60 129.12 17.50L129.12 17.50Q129.29 15.86 129.13 14.17Q128.98 12.47 128.57 11.00L128.57 11.00Q128.60 10.66 128.65 10.51Q128.71 10.35 128.64 10.29L128.64 10.29Q128.60 10.01 128.82 10.01Q129.05 10.01 129.29 10.01L129.29 10.01Q129.29 9.50 129.10 8.99Q128.91 8.47 128.74 7.83L128.74 7.83Q128.98 7.31 129.05 6.82Q129.12 6.32 129.35 5.95L129.35 5.95Q131.20 6.53 132.89 7.35Q134.58 8.17 136.22 8.54L136.22 8.54Q137.46 9.43 138.75 10.30Q140.05 11.17 141.11 12.22Q142.17 13.26 142.89 14.59Q143.61 15.93 143.71 17.77ZM135.61 19.65L135.61 19.65Q136.33 19.38 137.03 19.07Q137.73 18.76 138.33 18.37Q138.92 17.98 139.40 17.46Q139.88 16.95 140.19 16.23L140.19 16.23Q139.98 15.82 139.64 15.50Q139.30 15.17 138.96 14.88Q138.62 14.59 138.29 14.29Q137.97 13.98 137.76 13.53L137.76 13.53Q137.32 13.46 136.98 13.28Q136.63 13.09 136.31 12.90Q135.99 12.71 135.63 12.54Q135.27 12.37 134.79 12.34L134.79 12.34Q134.04 11.96 133.44 11.79Q132.84 11.62 132.53 11.35L132.53 11.35Q132.29 11.35 132.16 11.45L132.16 11.45Q132.50 12.75 132.67 13.89Q132.84 15.04 132.86 16.18Q132.88 17.33 132.74 18.52Q132.60 19.72 132.36 21.12L132.36 21.12Q132.70 21.09 132.99 20.97Q133.29 20.85 133.58 20.71Q133.87 20.57 134.19 20.45Q134.52 20.33 134.96 20.30L134.96 20.30Q135.06 20.10 135.25 19.96Q135.44 19.82 135.61 19.65ZM149.76 23.45L149.76 23.45Q149.38 24.81 149.09 25.51Q148.80 26.21 148.22 26.97L148.22 26.97Q147.78 26.90 147.61 27.07Q147.44 27.24 147.23 27.38L147.23 27.38Q146.92 27.44 146.79 27.38Q146.65 27.31 146.55 27.22Q146.44 27.14 146.29 27.05Q146.14 26.97 145.83 26.97L145.83 26.97Q145.76 26.69 145.68 26.45Q145.59 26.21 145.21 26.28L145.21 26.28Q145.28 26.01 145.25 25.82Q145.21 25.63 145.16 25.48Q145.11 25.33 145.08 25.17Q145.04 25.02 145.11 24.78L145.11 24.78Q144.94 24.78 144.84 24.54Q144.74 24.30 144.60 24.06L144.60 24.06Q144.70 23.45 144.80 22.90Q144.91 22.35 145.06 21.87Q145.21 21.39 145.32 20.92Q145.42 20.44 145.21 19.92L145.21 19.92Q145.35 20.03 145.42 19.87Q145.49 19.72 145.52 19.46Q145.56 19.21 145.56 18.95Q145.56 18.69 145.52 18.52L145.52 18.52Q145.86 17.63 146.09 16.69Q146.31 15.75 146.50 14.83Q146.68 13.91 146.89 13.02Q147.09 12.13 147.44 11.38L147.44 11.38Q147.81 11.31 148.27 11.47Q148.73 11.62 148.84 11.86L148.84 11.86Q149.73 11.17 150.41 10.20Q151.09 9.23 151.81 8.30Q152.53 7.38 153.40 6.66Q154.27 5.95 155.60 5.81L155.60 5.81Q156.29 6.32 157.13 6.85Q157.96 7.38 158.51 8.24L158.51 8.24Q158.78 8.37 158.97 8.53Q159.16 8.68 159.43 8.85L159.43 8.85L159.43 9.26Q159.84 9.64 160.10 10.13Q160.36 10.63 160.56 11.19Q160.77 11.76 160.97 12.32Q161.18 12.88 161.45 13.40L161.45 13.40Q161.38 13.57 161.38 13.69Q161.38 13.81 161.43 13.94Q161.48 14.08 161.52 14.22Q161.55 14.35 161.52 14.59L161.52 14.59Q161.42 16.10 160.54 17.02Q159.67 17.94 158.44 18.54Q157.21 19.14 155.81 19.55Q154.41 19.96 153.28 20.44L153.28 20.44Q153.28 20.57 153.40 20.57Q153.52 20.57 153.49 20.75L153.49 20.75Q154.31 21.26 154.78 21.57Q155.26 21.87 155.69 22.08Q156.12 22.28 156.61 22.44Q157.11 22.59 158.00 22.80L158.00 22.80Q158.89 23.00 159.38 23.12Q159.88 23.24 160.29 23.33Q160.70 23.41 161.12 23.46Q161.55 23.51 162.34 23.58L162.34 23.58Q162.65 23.89 162.87 24.32Q163.09 24.74 163.16 25.17Q163.23 25.60 163.19 25.99Q163.16 26.38 162.95 26.62L162.95 26.62Q162.99 26.73 163.11 26.71Q163.23 26.69 163.36 26.73L163.36 26.73Q163.16 26.86 163.02 27.07Q162.88 27.27 162.75 27.48Q162.61 27.68 162.44 27.84Q162.27 27.99 161.96 28.03L161.96 28.03Q160.90 28.44 159.30 28.08Q157.69 27.72 155.23 26.76L155.23 26.76Q154.00 26.28 153.23 25.92Q152.46 25.56 151.90 25.21Q151.33 24.85 150.87 24.44Q150.41 24.03 149.76 23.45ZM154.65 11.72L154.65 11.72Q154.27 12.27 153.81 12.71Q153.35 13.16 152.92 13.62Q152.49 14.08 152.15 14.64Q151.81 15.21 151.67 15.96L151.67 15.96Q152.87 15.82 154.17 15.29Q155.47 14.76 156.63 14.29L156.63 14.29Q156.49 13.23 155.90 12.58Q155.30 11.93 154.65 11.72Z"
							fill="#82C8E5"
						></path>
					</g>
				</svg>